<svg xmlns="http://www.w3.org/2000/svg" viewBox="0 0 400 100">
  <!-- Sea Tile (0,0,100,100) -->
  <rect x="0" y="0" width="100" height="100" fill="#4a90e2"/>
  <path d="M10 50 Q 30 40, 50 50 Q 70 60, 90 50" stroke="#6ba5e7" stroke-width="4" fill="none"/>
  <path d="M20 70 Q 40 60, 60 70 Q 80 80, 100 70" stroke="#6ba5e7" stroke-width="4" fill="none"/>
  
  <!-- Island Tile (100,0,200,100) -->
  <rect x="100" y="0" width="100" height="100" fill="#4a90e2"/>
  <!-- Sand -->
  <ellipse cx="150" cy="50" rx="35" ry="30" fill="#f6d55c"/>
  <!-- Palm tree -->
  <rect x="145" y="40" width="10" height="20" fill="#8b4513"/>
  <path d="M135 40 C 150 20, 165 40, 150 40" fill="#228b22"/>
  <path d="M135 35 C 150 15, 165 35, 150 35" fill="#228b22"/>
  <path d="M135 30 C 150 10, 165 30, 150 30" fill="#228b22"/>
  
  <!-- Ship Tile (200,0,300,100) -->
  <rect x="200" y="0" width="100" height="100" fill="#4a90e2"/>
  <!-- Ship hull -->
  <path d="M230 60 L270 60 L260 80 L240 80 Z" fill="#8b4513"/>
  <!-- Ship sail -->
  <path d="M250 30 L250 60 L270 60 Z" fill="#f8f9fa"/>
  <!-- Waves -->
  <path d="M210 70 Q 230 60, 250 70 Q 270 80, 290 70" stroke="#6ba5e7" stroke-width="4" fill="none"/>
  
  <!-- Unexplored Sea Tile (300,0,400,100) -->
  <rect x="300" y="0" width="100" height="100" fill="#2c3e50"/>
  <!-- Fog effect -->
  <path d="M310 30 Q 330 20, 350 30 Q 370 40, 390 30" stroke="#465669" stroke-width="6" fill="none" opacity="0.7"/>
  <path d="M320 50 Q 340 40, 360 50 Q 380 60, 400 50" stroke="#465669" stroke-width="6" fill="none" opacity="0.7"/>
  <path d="M310 70 Q 330 60, 350 70 Q 370 80, 390 70" stroke="#465669" stroke-width="6" fill="none" opacity="0.7"/>
</svg>
